<?xml version="1.0" encoding="UTF-8"?>
<svg width="597px" height="601px" viewBox="0 0 597 601" version="1.1" xmlns="http://www.w3.org/2000/svg" xmlns:xlink="http://www.w3.org/1999/xlink">
    <!-- Generator: Sketch 55.2 (78181) - https://sketchapp.com -->
    <title>Artboard</title>
    <desc>Created with Sketch.</desc>
    <defs>
        <path d="M92.2778492,183.26235 L92.273629,183.26235 L91.9722772,-8.52651283e-14 L114.857849,-8.52651283e-14 C115.868033,6.07112469 113.752309,12.4521065 108.510679,19.1429455 C103.277841,25.8225607 99.1052591,80.6989147 108.516759,182.747531 L108.524391,182.747531 C108.883,185.919743 108.883,187.4972 109.204373,189.894771 C112.902941,217.487582 86.2734917,238.539604 57.4139303,238.539604 C25.8155491,238.539604 0.2,213.050864 0.2,181.608911 C0.2,171.306249 2.95032165,161.64278 7.76024796,153.3058 C9.36495976,159.440053 10.849852,164.61497 12.2149254,168.830555 C13.9619478,174.225665 15.5726633,178.234609 17.0470719,180.857386 C14.7224823,180.188676 12.6993669,179.893427 12.7899972,181.659821 C12.9411058,184.604944 16.2653054,190.989212 19.4024254,196.284131 C21.2430086,199.390719 26.6761617,207.87175 35.6755694,212.03125 C43.4402832,215.620078 52.5930891,215.767459 57.9890022,215.767459 C76.3909438,215.767459 91.4110442,201.359632 92.2778492,183.26235 Z M102.270785,15.9405941 C105.746607,15.9405941 108.564317,13.1368327 108.564317,9.67821782 C108.564317,6.21960293 105.746607,3.41584158 102.270785,3.41584158 C98.7949627,3.41584158 95.9772523,6.21960293 95.9772523,9.67821782 C95.9772523,13.1368327 98.7949627,15.9405941 102.270785,15.9405941 Z" id="path-1"></path>
        <filter x="-7.4%" y="-3.6%" width="114.8%" height="107.1%" filterUnits="objectBoundingBox" id="filter-2">
            <feGaussianBlur stdDeviation="7" in="SourceAlpha" result="shadowBlurInner1"></feGaussianBlur>
            <feOffset dx="0" dy="2" in="shadowBlurInner1" result="shadowOffsetInner1"></feOffset>
            <feComposite in="shadowOffsetInner1" in2="SourceAlpha" operator="arithmetic" k2="-1" k3="1" result="shadowInnerInner1"></feComposite>
            <feColorMatrix values="0 0 0 0 0.114470109   0 0 0 0 0.106030992   0 0 0 0 0.106030992  0 0 0 1 0" type="matrix" in="shadowInnerInner1"></feColorMatrix>
        </filter>
    </defs>
    <g id="Artboard" stroke="none" stroke-width="1" fill="none" fill-rule="evenodd">
        <g id="Group" transform="translate(388.000000, 181.000000)">
            <g id="Combined-Shape">
                <use fill="#B7B2B9" fill-rule="evenodd" xlink:href="#path-1"></use>
                <use fill="black" fill-opacity="1" filter="url(#filter-2)" xlink:href="#path-1"></use>
                <use stroke="#979797" stroke-width="1" xlink:href="#path-1"></use>
            </g>
        </g>
        <g id="logo" transform="translate(93.000000, 181.000000)" fill-rule="nonzero">
            <polygon id="Path" stroke="#E2761B" fill="#E2761B" stroke-linecap="round" stroke-linejoin="round" points="242.3 0.5 142.8 74.4 161.2 30.8"></polygon>
            <g id="Group" transform="translate(2.000000, 0.000000)" fill="#E4761B" stroke="#E4761B" stroke-linecap="round" stroke-linejoin="round">
                <polygon id="Path" points="10.6 0.5 109.3 75.1 91.8 30.8"></polygon>
                <polygon id="Path" points="204.5 171.8 178 212.4 234.7 228 251 172.7"></polygon>
                <polygon id="Path" points="0.1 172.7 16.3 228 73 212.4 46.5 171.8"></polygon>
                <polygon id="Path" points="69.8 103.2 54 127.1 110.3 129.6 108.3 69.1"></polygon>
                <polygon id="Path" points="181.1 103.2 142.1 68.4 140.8 129.6 197 127.1"></polygon>
                <polygon id="Path" points="73 212.4 106.8 195.9 77.6 173.1"></polygon>
                <polygon id="Path" points="144.1 195.9 178 212.4 173.3 173.1"></polygon>
            </g>
            <g id="Group" transform="translate(75.000000, 195.000000)" fill="#D7C1B3" stroke="#D7C1B3" stroke-linecap="round" stroke-linejoin="round">
                <polygon id="Path" points="105 17.4 71.1 0.9 73.8 23 73.5 32.3"></polygon>
                <polygon id="Path" points="9.23705556e-14 17.4 31.5 32.3 31.3 23 33.8 0.9"></polygon>
            </g>
            <polygon id="Path" stroke="#233447" fill="#233447" stroke-linecap="round" stroke-linejoin="round" transform="translate(92.900000, 150.525870) scale(-1, 1) rotate(-1.000000) translate(-92.900000, -150.525870) " points="107 159.951741 78.8 150.2 98.7 141.1"></polygon>
            <polygon id="Path" stroke="#233447" fill="#233447" stroke-linecap="round" stroke-linejoin="round" points="147.9 158.5 156.2 141.1 176.2 150.2"></polygon>
            <polygon id="Eye-r" stroke="#233447" fill="#FFFFFF" stroke-linecap="round" stroke-linejoin="round" points="163.9 153.762544 167.50742 146.2 176.2 150.155124"></polygon>
            <polygon id="Eyelid-r" fill="#000000" points="167 152.70318 169.434276 147.6 175.3 150.268905"></polygon>
            <path d="M92.9000001,156.221908 L101.597762,144.341517 L109.2,151.441343 C111.032651,156.335889 110.565984,159.188775 107.8,160 C105.034016,160.811225 100.06735,159.551861 92.9000001,156.221908 Z" id="Eye-l" stroke="#233447" fill="#FFFFFF" stroke-linecap="round" stroke-linejoin="round" transform="translate(101.597762, 152.289943) rotate(-8.000000) translate(-101.597762, -152.289943) "></path>
            <polygon id="Eyelid-l" fill="#000000" transform="translate(103.550000, 151.859860) rotate(-8.000000) translate(-103.550000, -151.859860) " points="97.9000002 153.547703 102.597762 147.179066 109.2 150.233569 108.317362 156.540655"></polygon>
            <g id="Group" transform="translate(48.000000, 123.000000)" fill="#CD6116" stroke="#CD6116" stroke-linecap="round" stroke-linejoin="round">
                <polygon id="Path" points="27 89.4 31.8 48.8 0.5 49.7"></polygon>
                <polygon id="Path" points="127.2 48.8 132 89.4 158.5 49.7"></polygon>
                <polygon id="Path" points="151 4.1 94.8 6.6 100 35.5 108.3 18.1 128.3 27.2"></polygon>
                <polygon id="Path" transform="translate(45.292864, 19.083135) scale(-1, 1) rotate(-5.000000) translate(-45.292864, -19.083135) " points="30.0617183 26.3888674 50.508197 18.183582 58.2617183 34.5831349 83.3240089 5.94199173 7.26171829 3.58313491"></polygon>
            </g>
            <g id="Group" transform="translate(56.000000, 127.000000)" fill="#E4751F" stroke="#E4751F" stroke-linecap="round" stroke-linejoin="round">
                <polygon id="Path" points="6.39488462e-14 0.1 23.6 46.1 22.8 23.2"></polygon>
                <polygon id="Path" points="120.3 23.2 119.3 46.1 143 0.1"></polygon>
                <polygon id="Path" points="56.3 2.6 51 31.5 57.6 65.6 59.1 20.7"></polygon>
                <polygon id="Path" points="86.8 2.6 84.1 20.6 85.3 65.6 92 31.5"></polygon>
            </g>
            <polygon id="Path" stroke="#F6851B" fill="#F6851B" stroke-linecap="round" stroke-linejoin="round" points="148 158.5 141.3 192.6 146.1 195.9 175.3 173.1 176.3 150.2"></polygon>
            <polygon id="Path" stroke="#F6851B" fill="#F6851B" stroke-linecap="round" stroke-linejoin="round" transform="translate(96.175076, 173.429930) scale(-1, 1) translate(-96.175076, -173.429930) " points="84.2495855 151.85986 78.8 192.1 83.5501527 195 113.550153 173.932467 112.750153 157.163205"></polygon>
            <polygon id="Path" stroke="#C0AD9E" fill="#C0AD9E" stroke-linecap="round" stroke-linejoin="round" points="148.5 227.3 148.8 218 146.3 215.8 108.6 215.8 106.3 218 106.5 227.3 75 212.4 86 221.4 108.3 236.9 146.6 236.9 169 221.4 180 212.4"></polygon>
            <polygon id="Path" stroke="#161616" fill="#161616" stroke-linecap="round" stroke-linejoin="round" points="146.1 195.9 141.3 192.6 113.6 192.6 108.8 195.9 106.3 218 108.6 215.8 146.3 215.8 148.8 218"></polygon>
            <g id="Group" fill="#763D16" stroke="#763D16" stroke-linecap="round" stroke-linejoin="round">
                <polygon id="Path" points="246.5 79.2 255 38.4 242.3 0.5 146.1 71.9 183.1 103.2 235.4 118.5 247 105 242 101.4 250 94.1 243.8 89.3 251.8 83.2"></polygon>
                <polygon id="Path" points="3.55271368e-14 38.4 8.5 79.2 3.1 83.2 11.1 89.3 5 94.1 13 101.4 8 105 19.5 118.5 71.8 103.2 108.8 71.9 12.6 0.5"></polygon>
            </g>
            <polygon id="Path" stroke="#F6851B" fill="#F6851B" stroke-linecap="round" stroke-linejoin="round" points="235.4 118.5 183.1 103.2 199 127.1 175.3 173.1 206.5 172.7 253 172.7"></polygon>
            <polygon id="Path" stroke="#F6851B" fill="#F6851B" stroke-linecap="round" stroke-linejoin="round" points="71.8 103.2 19.5 118.5 2.1 172.7 48.5 172.7 79.6 173.1 56 127.1"></polygon>
            <polygon id="Path" stroke="#F6851B" fill="#F6851B" stroke-linecap="round" stroke-linejoin="round" points="142.8 129.6 146.1 71.9 161.3 30.8 93.8 30.8 108.8 71.9 112.3 129.6 113.5 147.8 113.6 192.6 141.3 192.6 141.5 147.8"></polygon>
        </g>
    </g>
</svg>